<svg width="300" height="300" viewBox="0 0 300 300" fill="none" xmlns="http://www.w3.org/2000/svg">
<g clip-path="url(#clip0_1_121)">
<path d="M170.119 27.954L173.181 28.7086L176.046 48.0676L176.294 48.1288L187.828 32.3188L190.889 33.0734L185.668 54.2576L183.268 53.6661L187.235 37.5711L187.028 37.5201L176.441 51.9834L174.124 51.4123L171.471 33.6856L171.264 33.6346L167.297 49.7297L164.898 49.1382L170.119 27.954Z" fill="black"/>
<path d="M199.558 36.6481L202.237 38.0542L202.862 49.8843L203.089 50.0032L213.18 43.7972L215.859 45.2032L202.917 52.8971L198.739 60.8586L196.4 59.6308L200.578 51.6693L199.558 36.6481Z" fill="black"/>
<path d="M231.271 88.4864L249.227 76.0922L250.728 78.2666L234.701 89.3293L240.463 97.6761L238.534 99.0075L231.271 88.4864Z" fill="black"/>
<path d="M243.499 108.956L242.517 106.366L265.758 106.12L266.725 108.67L249.166 123.898L248.184 121.308L263.045 108.699L262.984 108.54L243.499 108.956ZM251.831 106.89L255.79 117.33L253.598 118.161L249.639 107.721L251.831 106.89Z" fill="black"/>
<path d="M274.255 145.018L252.596 147.648L252.288 145.109L267.861 131.242L267.835 131.03L250.829 133.095L250.511 130.473L272.17 127.843L272.478 130.381L256.868 144.296L256.894 144.507L273.942 142.437L274.255 145.018Z" fill="black"/>
<path d="M265.492 171.838C266.233 171.692 266.908 171.463 267.518 171.151C268.135 170.846 268.675 170.458 269.141 169.985C269.605 169.519 269.983 168.971 270.274 168.341C270.565 167.711 270.758 167.005 270.853 166.222C271.009 164.939 270.819 163.732 270.284 162.601C269.749 161.47 268.874 160.516 267.659 159.738C266.444 158.961 264.899 158.459 263.023 158.231C261.148 158.004 259.527 158.125 258.161 158.596C256.794 159.067 255.715 159.798 254.922 160.789C254.129 161.78 253.651 162.946 253.488 164.285C253.338 165.526 253.469 166.651 253.883 167.66C254.304 168.677 254.968 169.509 255.877 170.156C256.792 170.81 257.912 171.218 259.238 171.379L258.971 172.163L259.762 165.648L262.089 165.93L261.087 174.179L258.76 173.897C256.977 173.68 255.472 173.111 254.246 172.19C253.019 171.275 252.123 170.108 251.559 168.687C251.001 167.274 250.826 165.708 251.035 163.987C251.268 162.07 251.923 160.439 253.002 159.096C254.08 157.761 255.5 156.788 257.263 156.18C259.024 155.578 261.047 155.416 263.332 155.693C265.045 155.901 266.558 156.317 267.87 156.942C269.188 157.574 270.279 158.372 271.142 159.335C272.005 160.298 272.624 161.389 272.998 162.608C273.373 163.827 273.475 165.131 273.307 166.52C273.168 167.662 272.866 168.706 272.401 169.651C271.942 170.604 271.351 171.43 270.629 172.129C269.914 172.837 269.091 173.398 268.16 173.815C267.237 174.232 266.238 174.476 265.163 174.546L265.492 171.838Z" fill="black"/>
<path d="M263.64 200.715L262.703 203.185L249.196 198.063C247.801 197.534 246.681 196.733 245.834 195.66C244.992 194.596 244.481 193.35 244.301 191.922C244.127 190.497 244.344 188.984 244.951 187.384C245.558 185.783 246.399 184.507 247.474 183.555C248.556 182.606 249.766 182.009 251.104 181.764C252.447 181.529 253.815 181.676 255.21 182.205L268.717 187.327L267.78 189.798L254.472 184.751C253.476 184.373 252.506 184.256 251.563 184.399C250.627 184.546 249.782 184.939 249.03 185.581C248.282 186.231 247.693 187.124 247.262 188.26C246.831 189.396 246.68 190.455 246.809 191.438C246.944 192.423 247.315 193.278 247.921 194.002C248.532 194.735 249.336 195.29 250.332 195.668L263.64 200.715Z" fill="black"/>
<path d="M237.466 203.788L239.039 201.509L252.444 220.496L250.895 222.741L228.388 216.94L229.962 214.66L248.781 219.728L248.878 219.588L237.466 203.788ZM243.899 209.472L237.557 218.66L235.628 217.329L241.97 208.14L243.899 209.472Z" fill="black"/>
<path d="M222.415 242.997C223.066 243.378 223.723 243.654 224.387 243.825C225.05 244.006 225.713 244.074 226.375 244.029C227.031 243.988 227.677 243.828 228.313 243.55C228.949 243.271 229.562 242.871 230.152 242.348C231.119 241.491 231.778 240.461 232.127 239.26C232.477 238.058 232.454 236.764 232.06 235.377C231.666 233.989 230.843 232.589 229.59 231.175C228.337 229.761 227.043 228.777 225.708 228.223C224.373 227.669 223.08 227.5 221.83 227.717C220.579 227.933 219.448 228.488 218.438 229.383C217.503 230.212 216.855 231.141 216.496 232.171C216.137 233.211 216.082 234.274 216.333 235.361C216.584 236.458 217.152 237.506 218.038 238.506L217.318 238.915L222.231 234.563L223.785 236.318L217.565 241.828L216.011 240.074C214.819 238.729 214.07 237.305 213.764 235.802C213.452 234.304 213.556 232.836 214.075 231.398C214.594 229.971 215.502 228.682 216.799 227.533C218.245 226.252 219.817 225.467 221.515 225.177C223.208 224.892 224.916 225.106 226.639 225.819C228.356 226.537 229.978 227.757 231.504 229.479C232.648 230.771 233.505 232.086 234.073 233.423C234.64 234.771 234.928 236.091 234.935 237.384C234.942 238.678 234.682 239.905 234.154 241.065C233.626 242.226 232.838 243.27 231.791 244.198C230.93 244.961 230.011 245.542 229.036 245.941C228.061 246.349 227.071 246.576 226.067 246.621C225.063 246.676 224.074 246.551 223.101 246.246C222.133 245.946 221.224 245.465 220.373 244.805L222.415 242.997Z" fill="black"/>
<path d="M203.171 238.064L213.311 257.383L201.651 263.503L200.562 261.427L209.882 256.536L206.456 250.008L197.74 254.583L196.651 252.507L205.367 247.933L201.921 241.367L192.45 246.338L191.361 244.263L203.171 238.064Z" fill="black"/>
<path d="M173.619 266.815C174.001 267.832 174.705 268.522 175.731 268.884C176.756 269.245 177.91 269.268 179.193 268.952C180.131 268.721 180.914 268.367 181.542 267.89C182.164 267.415 182.606 266.864 182.868 266.236C183.124 265.609 183.168 264.959 183.001 264.283C182.862 263.717 182.608 263.264 182.238 262.924C181.864 262.592 181.43 262.344 180.936 262.18C180.444 262.024 179.942 261.917 179.431 261.86C178.921 261.81 178.457 261.782 178.038 261.775L175.744 261.726C175.157 261.718 174.494 261.669 173.755 261.58C173.009 261.493 172.272 261.306 171.542 261.017C170.808 260.738 170.153 260.307 169.578 259.724C169.003 259.142 168.593 258.354 168.348 257.361C168.066 256.216 168.111 255.108 168.483 254.036C168.848 252.966 169.536 252.017 170.547 251.19C171.55 250.365 172.866 249.752 174.493 249.351C176.01 248.977 177.384 248.898 178.615 249.114C179.839 249.332 180.876 249.8 181.727 250.52C182.57 251.241 183.176 252.17 183.544 253.308L180.896 253.961C180.63 253.178 180.198 252.582 179.6 252.174C178.997 251.774 178.301 251.536 177.514 251.459C176.722 251.391 175.906 251.461 175.064 251.668C174.085 251.909 173.245 252.285 172.544 252.794C171.845 253.31 171.338 253.91 171.024 254.595C170.711 255.286 170.65 256.018 170.841 256.791C171.014 257.494 171.352 258.018 171.854 258.362C172.355 258.707 172.961 258.938 173.67 259.056C174.38 259.173 175.132 259.244 175.928 259.267L178.718 259.37C180.49 259.437 181.968 259.794 183.151 260.438C184.334 261.083 185.101 262.119 185.453 263.547C185.746 264.733 185.68 265.846 185.256 266.887C184.827 267.936 184.128 268.84 183.159 269.598C182.185 270.365 181.022 270.915 179.671 271.248C178.305 271.585 177.031 271.639 175.849 271.411C174.668 271.19 173.663 270.735 172.835 270.047C172.001 269.361 171.434 268.487 171.136 267.427L173.619 266.815Z" fill="black"/>
<path d="M130.158 273.295L127.097 272.541L124.232 253.182L123.983 253.12L112.45 268.93L109.388 268.176L114.609 246.992L117.009 247.583L113.042 263.678L113.249 263.729L123.836 249.266L126.153 249.837L128.806 267.564L129.013 267.615L132.98 251.519L135.38 252.111L130.158 273.295Z" fill="black"/>
<path d="M100.719 264.601L98.0401 263.195L97.4151 251.365L97.1887 251.246L87.0977 257.452L84.4186 256.046L97.36 248.352L101.539 240.391L103.878 241.618L99.6994 249.58L100.719 264.601Z" fill="black"/>
<path d="M69.0061 212.763L51.0501 225.157L49.5492 222.983L65.5764 211.92L59.8151 203.573L61.7439 202.242L69.0061 212.763Z" fill="black"/>
<path d="M56.7782 192.293L57.7604 194.883L34.5192 195.129L33.5521 192.579L51.1116 177.351L52.0938 179.941L37.2328 192.55L37.2933 192.709L56.7782 192.293ZM48.4467 194.359L44.4876 183.92L46.679 183.088L50.6381 193.528L48.4467 194.359Z" fill="black"/>
<path d="M26.022 156.232L47.6811 153.602L47.9893 156.14L32.4166 170.007L32.4423 170.219L49.4481 168.154L49.7666 170.777L28.1074 173.406L27.7993 170.868L43.4091 156.953L43.3834 156.742L26.3354 158.812L26.022 156.232Z" fill="black"/>
<path d="M34.7854 129.411C34.045 129.557 33.3697 129.786 32.7594 130.099C32.143 130.403 31.6021 130.792 31.1369 131.264C30.6725 131.73 30.2948 132.278 30.0036 132.908C29.7125 133.538 29.5194 134.245 29.4244 135.027C29.2686 136.31 29.4583 137.518 29.9935 138.649C30.5287 139.78 31.4037 140.734 32.6186 141.511C33.8335 142.288 35.3787 142.79 37.2541 143.018C39.1295 143.246 40.7505 143.124 42.1169 142.653C43.4833 142.182 44.563 141.451 45.3559 140.46C46.1487 139.469 46.6265 138.304 46.7892 136.964C46.9398 135.723 46.8081 134.598 46.3941 133.589C45.9738 132.572 45.3093 131.74 44.4005 131.093C43.4856 130.439 42.3653 130.031 41.0398 129.87L41.3066 129.087L40.5156 135.601L38.189 135.319L39.1906 127.07L41.5172 127.352C43.301 127.569 44.8059 128.138 46.0319 129.059C47.2587 129.974 48.1543 131.141 48.7187 132.562C49.2769 133.975 49.4516 135.542 49.2427 137.262C49.0099 139.18 48.354 140.81 47.2752 142.153C46.1973 143.489 44.7771 144.461 43.0147 145.07C41.2532 145.671 39.2303 145.833 36.9459 145.556C35.2327 145.348 33.7199 144.932 32.4078 144.307C31.0895 143.675 29.9987 142.877 29.1355 141.914C28.2723 140.951 27.6536 139.86 27.2793 138.641C26.905 137.422 26.8022 136.118 26.9708 134.729C27.1095 133.587 27.4115 132.543 27.8768 131.598C28.336 130.645 28.9264 129.819 29.648 129.12C30.3635 128.413 31.1865 127.851 32.1171 127.434C33.0406 127.017 34.0396 126.773 35.1141 126.703L34.7854 129.411Z" fill="black"/>
<path d="M36.6378 100.534L37.5747 98.0637L51.082 103.186C52.4765 103.715 53.597 104.516 54.4434 105.589C55.2857 106.653 55.7968 107.899 55.9769 109.327C56.1503 110.752 55.9335 112.265 55.3266 113.866C54.7196 115.466 53.8786 116.742 52.8036 117.694C51.7219 118.644 50.5118 119.24 49.1734 119.485C47.8309 119.72 46.4623 119.573 45.0678 119.044L31.5605 113.922L32.4974 111.451L45.8055 116.499C46.8016 116.876 47.7712 116.993 48.7144 116.85C49.6509 116.704 50.4953 116.31 51.2475 115.668C51.9956 115.018 52.5849 114.125 53.0156 112.989C53.4463 111.854 53.5973 110.794 53.4688 109.811C53.3337 108.826 52.9628 107.971 52.3562 107.247C51.7454 106.514 50.942 105.959 49.9459 105.581L36.6378 100.534Z" fill="black"/>
<path d="M62.8116 97.4607L61.2381 99.7402L47.8331 80.7529L49.3824 78.5084L71.8893 84.3093L70.3159 86.5888L51.4968 81.5213L51.4 81.6615L62.8116 97.4607ZM56.3785 91.7775L62.7208 82.5891L64.6497 83.9205L58.3074 93.1089L56.3785 91.7775Z" fill="black"/>
<path d="M77.8628 58.2524C77.2117 57.8709 76.5542 57.5947 75.8903 57.4237C75.2271 57.2427 74.5646 57.175 73.9027 57.2205C73.2462 57.2613 72.6001 57.4209 71.9644 57.6994C71.3287 57.9779 70.7158 58.3786 70.1257 58.9014C69.1582 59.7585 68.4997 60.7878 68.1503 61.9893C67.8009 63.1908 67.8233 64.4851 68.2173 65.8724C68.6114 67.2597 69.4348 68.6604 70.6876 70.0745C71.9403 71.4886 73.2342 72.4725 74.5692 73.0262C75.9042 73.5799 77.1971 73.7487 78.4479 73.5325C79.6986 73.3163 80.829 72.7608 81.8391 71.866C82.7748 71.0371 83.4221 70.1078 83.7813 69.0779C84.141 68.0381 84.1953 66.9748 83.944 65.8879C83.6934 64.791 83.1254 63.7429 82.24 62.7435L82.9591 62.3341L78.047 66.6859L76.4928 64.9316L82.7126 59.4212L84.2668 61.1756C85.4584 62.5205 86.2074 63.9444 86.514 65.4472C86.8259 66.9452 86.722 68.4131 86.2024 69.8508C85.6833 71.2784 84.7752 72.5669 83.4781 73.716C82.0321 74.9971 80.4601 75.7824 78.7622 76.0722C77.0695 76.3572 75.3618 76.1432 73.6389 75.4302C71.9214 74.7125 70.2997 73.4924 68.7737 71.77C67.6293 70.4782 66.773 69.1636 66.2049 67.8261C65.6374 66.4786 65.3499 65.1581 65.3427 63.8647C65.3354 62.5712 65.5957 61.3442 66.1238 60.1838C66.6518 59.0233 67.4395 57.9792 68.4867 57.0514C69.348 56.2884 70.2661 55.7075 71.2411 55.3086C72.2168 54.8997 73.2065 54.6728 74.2105 54.6279C75.215 54.5729 76.2036 54.6981 77.1763 55.0035C78.1443 55.3035 79.0536 55.7837 79.9042 56.4439L77.8628 58.2524Z" fill="black"/>
<path d="M97.1062 63.1849L86.9668 43.8659L98.6261 37.7466L99.7153 39.8219L90.3954 44.7134L93.8214 51.2411L102.538 46.6665L103.627 48.7418L94.9106 53.3164L98.3564 59.8818L107.827 54.9111L108.916 56.9864L97.1062 63.1849Z" fill="black"/>
<path d="M126.659 34.4344C126.276 33.4168 125.572 32.7272 124.547 32.3655C123.521 32.0038 122.367 31.981 121.085 32.2972C120.147 32.5283 119.364 32.8823 118.735 33.3591C118.113 33.8342 117.671 34.3856 117.409 35.0135C117.154 35.6397 117.11 36.2907 117.276 36.9665C117.416 37.5319 117.67 37.9849 118.039 38.3255C118.414 38.6575 118.848 38.9052 119.341 39.0688C119.834 39.2255 120.335 39.3322 120.847 39.389C121.356 39.439 121.821 39.4672 122.239 39.4738L124.533 39.5227C125.121 39.5315 125.784 39.5803 126.523 39.6688C127.268 39.7557 128.006 39.9433 128.735 40.2317C129.47 40.5115 130.125 40.9426 130.7 41.525C131.275 42.1074 131.685 42.8951 131.929 43.8881C132.212 45.0328 132.167 46.1411 131.794 47.2131C131.429 48.2833 130.741 49.2319 129.731 50.0588C128.727 50.884 127.412 51.4972 125.784 51.8983C124.267 52.2722 122.893 52.3512 121.662 52.1353C120.438 51.9176 119.401 51.4491 118.551 50.7297C117.707 50.0086 117.102 49.0789 116.733 47.9408L119.381 47.2882C119.647 48.0711 120.08 48.6668 120.678 49.0753C121.281 49.4752 121.976 49.7135 122.763 49.7902C123.555 49.8583 124.372 49.7886 125.213 49.5813C126.192 49.3399 127.033 48.9646 127.734 48.4553C128.433 47.9392 128.94 47.3388 129.254 46.6543C129.566 45.9628 129.627 45.231 129.437 44.4586C129.263 43.7552 128.926 43.2313 128.424 42.8869C127.922 42.5424 127.317 42.3113 126.607 42.1935C125.898 42.0758 125.145 42.0052 124.35 41.9819L121.559 41.8796C119.787 41.8117 118.309 41.4554 117.126 40.8107C115.944 40.166 115.176 39.1299 114.824 37.7025C114.532 36.5164 114.598 35.403 115.021 34.3622C115.45 33.3129 116.149 32.4091 117.118 31.651C118.092 30.8842 119.255 30.3343 120.607 30.0011C121.972 29.6646 123.246 29.6102 124.429 29.8381C125.61 30.0591 126.614 30.5137 127.442 31.202C128.277 31.8887 128.843 32.7622 129.141 33.8225L126.659 34.4344Z" fill="black"/>
</g>
<defs>
<clipPath id="clip0_1_121">
<rect width="300" height="300" fill="white"/>
</clipPath>
</defs>
</svg>
